<svg width="172" height="43" viewBox="0 0 172 43" fill="none" xmlns="http://www.w3.org/2000/svg">
<path d="M64.441 32.5532C61.9905 32.5532 60.0775 31.8873 58.7018 30.5554C57.3249 29.2248 56.6364 27.3531 56.6364 24.9401C56.6364 23.5794 56.8975 22.325 57.4199 21.1785C57.9423 20.029 58.7458 19.0997 59.8307 18.3888C60.9157 17.681 62.2516 17.3269 63.8388 17.3269C65.3251 17.3269 66.6108 17.6568 67.6958 18.3168C68.7808 18.9779 69.6026 19.8592 70.1689 20.9625C70.7353 22.0658 71.0128 23.2657 71.0128 24.5675C71.0128 24.9311 70.8877 25.2376 70.6352 25.4854C70.3828 25.7332 70.0468 25.858 69.6252 25.858H59.4116C59.5715 27.1993 60.0937 28.2432 60.9786 28.9896C61.8621 29.7371 63.0974 30.1109 64.6846 30.1109C65.5279 30.1109 66.2661 30.034 66.8991 29.8805C67.5321 29.727 68.1502 29.5067 68.753 29.22C68.914 29.1431 69.0928 29.1048 69.2948 29.1048C69.6171 29.1048 69.8984 29.2104 70.1387 29.4216C70.3804 29.6316 70.5012 29.8998 70.5012 30.2261C70.5012 30.6472 70.2401 31.0012 69.7177 31.2879C68.9337 31.7091 68.1602 32.0253 67.3956 32.2364C66.631 32.4475 65.6468 32.5532 64.441 32.5532ZM59.4097 23.7342H68.298C68.2389 22.796 67.9827 22.0105 67.5296 21.3765C67.0779 20.7453 66.5209 20.2809 65.8588 19.9834C65.1956 19.687 64.5222 19.5389 63.8388 19.5389C63.1553 19.5389 62.4827 19.687 61.8187 19.9834C61.1555 20.2809 60.6029 20.7453 60.1611 21.3765C59.7194 22.0087 59.4683 22.7942 59.406 23.7342H59.4097ZM79.599 32.5532C77.5903 32.5532 75.7622 32.1218 74.1147 31.2573C73.7724 31.0282 73.6011 30.7125 73.6011 30.3106C73.6011 30.0034 73.712 29.7353 73.9334 29.5061C74.1537 29.2758 74.435 29.1606 74.7773 29.1606C74.9572 29.1606 75.136 29.1989 75.3191 29.2758C75.9624 29.5434 76.6054 29.754 77.2486 29.9057C77.8905 30.0592 78.6135 30.1361 79.4197 30.1361C81.6499 30.1361 82.7651 29.4563 82.7651 28.0969C82.7651 27.6554 82.5089 27.3199 81.9967 27.089C81.4845 26.8581 80.6455 26.6 79.4801 26.3151C78.2945 26.0464 77.3152 25.7685 76.5425 25.4818C75.7685 25.1951 75.1052 24.7595 74.5527 24.1752C74.0001 23.5908 73.722 22.8199 73.722 21.8624C73.722 20.521 74.2293 19.4291 75.2436 18.5868C76.258 17.7445 77.7098 17.3233 79.599 17.3233C81.1458 17.3233 82.6021 17.5627 83.9677 18.0433C84.2495 18.1201 84.4655 18.2634 84.6152 18.4752C84.7662 18.6863 84.8418 18.9066 84.8418 19.1357C84.8418 19.443 84.7285 19.7111 84.4963 19.9402C84.2646 20.1706 83.9784 20.2858 83.6373 20.2858C83.5366 20.2858 83.4056 20.2665 83.2446 20.2282C82.0792 19.8839 80.9338 19.7117 79.8086 19.7117C78.7249 19.7117 77.8767 19.8983 77.2637 20.2696C76.6507 20.6409 76.3443 21.1263 76.3443 21.7202C76.3443 22.2949 76.6275 22.7161 77.1882 22.9837C77.7508 23.2524 78.6243 23.511 79.8086 23.7576C80.9942 24.0456 81.9608 24.3281 82.7028 24.6035C83.4453 24.8819 84.0809 25.3175 84.6152 25.9102C85.1476 26.5041 85.4138 27.2991 85.4138 28.2949C85.4138 29.5211 84.9065 30.5362 83.8921 31.3401C82.8778 32.1452 81.4467 32.546 79.599 32.546V32.5532ZM90.4458 32.4092C90.0645 32.4092 89.7435 32.2845 89.483 32.0349C89.2213 31.7865 89.0903 31.4805 89.0903 31.117V12.4711C89.0903 12.1075 89.2213 11.7962 89.483 11.5352C89.7435 11.2773 90.0645 11.1482 90.4458 11.1482C90.6282 11.1455 90.8093 11.1784 90.9778 11.245C91.1463 11.3115 91.2987 11.4103 91.4257 11.5352C91.5572 11.6563 91.6612 11.8019 91.7313 11.9628C91.8015 12.1238 91.8362 12.2968 91.8334 12.4711V24.2237L99.0037 17.9029C99.3058 17.6532 99.6073 17.5285 99.9099 17.5285C100.372 17.5285 100.708 17.6532 100.92 17.9029C101.131 18.1525 101.237 18.4495 101.237 18.7938C101.237 19.119 101.066 19.4448 100.724 19.7711L96.3852 23.4786L101.841 30.3718C102.043 30.6202 102.143 30.8781 102.143 31.1458C102.143 31.5297 102.012 31.8363 101.751 32.0636C101.49 32.294 101.159 32.4092 100.756 32.4092C100.556 32.4092 100.355 32.3612 100.152 32.2652C99.9482 32.1693 99.7796 32.0354 99.6418 31.8639L94.4576 25.1398L91.8372 27.4076V31.1152C91.8372 31.4787 91.7013 31.7847 91.4294 32.0331C91.1589 32.2827 90.8323 32.4074 90.4477 32.4074L90.4458 32.4092ZM109.129 32.5532C108.246 32.5532 107.427 32.3804 106.675 32.0349C105.922 31.6906 105.324 31.1877 104.881 30.5266C104.44 29.8666 104.221 29.1053 104.221 28.2409C104.221 26.8239 104.808 25.6942 105.984 24.8519C107.159 24.0083 108.883 23.5866 111.153 23.5866H114.797V23.358C114.797 22.0933 114.47 21.1834 113.815 20.6278C113.16 20.0722 112.142 19.7945 110.757 19.7945C109.993 19.7945 109.315 19.852 108.723 19.9672C108.13 20.0824 107.472 20.2552 106.748 20.4856C106.587 20.5239 106.457 20.5432 106.358 20.5432C106.056 20.5432 105.795 20.4375 105.574 20.2264C105.353 20.0153 105.242 19.7585 105.242 19.4525C105.242 18.9354 105.503 18.5711 106.025 18.36C107.733 17.6712 109.471 17.3269 111.236 17.3269C112.623 17.3269 113.794 17.5969 114.748 18.1314C115.702 18.666 116.405 19.362 116.856 20.2138C117.308 21.0656 117.536 21.9897 117.536 22.9855V31.117C117.536 31.4805 117.401 31.7865 117.13 32.0349C117.001 32.1563 116.848 32.252 116.68 32.3163C116.512 32.3805 116.331 32.4121 116.15 32.4092C115.769 32.4092 115.447 32.2845 115.187 32.0349C114.927 31.7865 114.797 31.4805 114.797 31.117V30.3718C113.31 31.8273 111.422 32.555 109.133 32.555L109.129 32.5532ZM110.154 30.2549C111.038 30.2549 111.892 30.0484 112.716 29.6357C113.539 29.2241 114.232 28.7124 114.793 28.1005V25.6888H111.508C108.475 25.6888 106.958 26.4452 106.958 27.9565C106.958 28.6453 107.204 29.1984 107.694 29.6213C108.187 30.0437 109.005 30.2549 110.149 30.2549H110.154ZM123.502 32.4092C123.121 32.4092 122.8 32.2845 122.54 32.0349C122.278 31.7865 122.147 31.4805 122.147 31.117V12.4711C122.144 12.2983 122.177 12.1267 122.244 11.9663C122.312 11.8059 122.412 11.6599 122.54 11.537C122.8 11.2791 123.121 11.15 123.502 11.15C123.905 11.15 124.239 11.276 124.497 11.5226C124.759 11.7722 124.89 12.0883 124.89 12.4711V31.117C124.89 31.4805 124.754 31.7865 124.482 32.0349C124.212 32.2845 123.885 32.4092 123.5 32.4092H123.502ZM133.568 32.5532C132.684 32.5532 131.865 32.3804 131.113 32.0349C130.361 31.6906 129.763 31.1877 129.32 30.5266C128.878 29.8666 128.659 29.1053 128.659 28.2409C128.659 26.8239 129.247 25.6942 130.422 24.8519C131.598 24.0083 133.321 23.5866 135.591 23.5866H139.235V23.358C139.235 22.0933 138.908 21.1834 138.253 20.6278C137.598 20.0722 136.581 19.7945 135.195 19.7945C134.431 19.7945 133.753 19.852 133.162 19.9672C132.569 20.0824 131.911 20.2552 131.187 20.4856C131.026 20.5239 130.895 20.5432 130.796 20.5432C130.494 20.5432 130.233 20.4375 130.013 20.2264C129.791 20.0153 129.68 19.7585 129.68 19.4525C129.68 18.9354 129.941 18.5711 130.464 18.36C132.172 17.6712 133.909 17.3269 135.674 17.3269C137.061 17.3269 138.232 17.5969 139.186 18.1314C140.14 18.666 140.843 19.362 141.295 20.2138C141.747 21.0656 141.974 21.9897 141.974 22.9855V31.117C141.974 31.4805 141.839 31.7865 141.568 32.0349C141.44 32.1563 141.286 32.252 141.118 32.3163C140.95 32.3805 140.77 32.4121 140.589 32.4092C140.207 32.4092 139.886 32.2845 139.626 32.0349C139.365 31.7865 139.235 31.4805 139.235 31.117V30.3718C137.749 31.8273 135.86 32.555 133.571 32.555L133.568 32.5532ZM134.593 30.2549C135.476 30.2549 136.33 30.0484 137.155 29.6357C137.978 29.2241 138.671 28.7124 139.231 28.1005V25.6888H135.946C132.913 25.6888 131.396 26.4452 131.396 27.9565C131.396 28.6453 131.642 29.1984 132.133 29.6213C132.625 30.0437 133.444 30.2549 134.587 30.2549H134.593ZM151.527 32.5532C148.594 32.5532 147.128 31.2892 147.128 28.761V19.852H144.989C144.828 19.852 144.692 19.7981 144.581 19.6955C144.47 19.5898 144.415 19.4602 144.415 19.3067C144.415 19.1159 144.506 18.9534 144.687 18.8208L148.784 14.9998C148.963 14.827 149.134 14.7406 149.293 14.7406C149.37 14.7397 149.447 14.7547 149.517 14.7845C149.587 14.8143 149.65 14.8583 149.701 14.9134C149.811 15.0286 149.865 15.1623 149.865 15.3148V17.6131H153.271C153.612 17.6131 153.894 17.7188 154.115 17.9299C154.336 18.141 154.447 18.4092 154.447 18.7344C154.449 18.8805 154.421 19.0256 154.364 19.1612C154.307 19.2968 154.222 19.4203 154.115 19.5245C153.894 19.7441 153.612 19.8538 153.271 19.8538H149.865V28.5289C149.865 29.2752 150.052 29.7491 150.424 29.9507C150.795 30.1523 151.262 30.2531 151.825 30.2531C152.233 30.2521 152.639 30.1939 153.029 30.0803L153.286 30.0227C153.377 30.0034 153.493 29.9939 153.634 29.9939C153.914 29.9939 154.165 30.0947 154.389 30.2963C154.609 30.4966 154.719 30.7408 154.719 31.0288C154.719 31.4692 154.488 31.8039 154.026 32.0331C153.243 32.3786 152.41 32.5514 151.525 32.5514L151.527 32.5532ZM164.394 32.5532C161.943 32.5532 160.03 31.8873 158.654 30.5554C157.278 29.2248 156.589 27.3531 156.589 24.9401C156.589 23.5794 156.85 22.325 157.373 21.1785C157.895 20.029 158.698 19.0997 159.783 18.3888C160.868 17.681 162.204 17.3269 163.791 17.3269C165.278 17.3269 166.563 17.6568 167.648 18.3168C168.733 18.9779 169.555 19.8592 170.122 20.9625C170.688 22.0658 170.965 23.2657 170.965 24.5675C170.965 24.9311 170.84 25.2376 170.588 25.4854C170.335 25.7332 169.999 25.858 169.578 25.858H159.364C159.524 27.1993 160.046 28.2432 160.931 28.9896C161.815 29.7371 163.05 30.1109 164.637 30.1109C165.481 30.1109 166.219 30.034 166.852 29.8805C167.485 29.727 168.103 29.5067 168.706 29.22C168.867 29.1431 169.045 29.1048 169.247 29.1048C169.57 29.1048 169.851 29.2104 170.091 29.4216C170.333 29.6316 170.454 29.8998 170.454 30.2261C170.454 30.6472 170.193 31.0012 169.67 31.2879C168.886 31.7091 168.113 32.0253 167.348 32.2364C166.584 32.4475 165.599 32.5532 164.394 32.5532ZM159.362 23.7342H168.251C168.192 22.796 167.935 22.0105 167.482 21.3765C167.031 20.7453 166.474 20.2809 165.812 19.9834C165.148 19.687 164.475 19.5389 163.791 19.5389C163.108 19.5389 162.435 19.687 161.771 19.9834C161.108 20.2809 160.556 20.7453 160.114 21.3765C159.672 22.0087 159.421 22.7942 159.359 23.7342H159.362ZM43.455 20.419L43.4173 20.518C43.4173 20.518 42.6395 26.5113 36.9191 31.6317L36.5793 31.9197H36.5944C35.2653 33.1075 33.5737 34.3584 31.6235 35.5265C35.8637 34.7417 40.7232 33.2155 44.0044 30.8344C45.9055 27.7639 46.8967 24.4811 46.7343 21.5259C46.7154 21.1839 46.6833 20.8833 46.6437 20.6152C45.8697 20.1022 44.8785 19.7981 43.4569 20.4172L43.455 20.419ZM28.5859 41.0986C26.428 41.1526 24.1304 40.6235 21.9329 39.6138C19.4276 40.2563 16.8015 40.6109 14.1547 40.5317C14.8966 40.8466 15.6763 41.1256 16.5014 41.356C28.4839 44.7144 38.6371 38.8651 43.5626 31.5219C43.2266 32.0133 42.6999 32.7404 41.9579 33.6349C41.3292 34.3908 35.7278 40.9132 28.5859 41.0986ZM37.3609 18.3078C36.5415 21.5529 33.8078 28.3993 25.5369 28.7916C27.0378 29.175 28.6519 29.166 30.1811 28.77C32.0502 28.2841 39.3262 26.1567 40.9838 18.4464C41.2103 17.2495 42.377 9.15948 33.0923 5.00195C36.0941 8.59074 38.4955 13.8209 37.359 18.3078H37.3609ZM9.69545 15.5829C10.0881 13.5312 10.7829 11.4848 11.7268 9.58063C10.0844 11.1195 8.76848 12.7303 7.88683 14.1377C6.69178 16.0455 5.81013 18.0397 5.23621 20.0446C6.46335 18.5922 7.97367 17.039 9.69545 15.5811V15.5829Z" fill="black"/>
<path opacity="0.6" d="M30.2344 3.9565C31.2841 4.26606 32.2356 4.61702 33.0946 5.00038C31.4521 3.0386 29.6303 1.56277 28.1048 0.97784C21.0969 -1.71825 14.9537 3.0782 11.7272 9.57725C16.1449 5.43773 22.9565 1.80934 30.2344 3.9547V3.9565Z" fill="black"/>
<path d="M25.5112 9.60223L25.7 9.61303C26.2814 9.66703 26.8365 9.77141 27.3651 9.9154C27.367 9.9154 27.3689 9.9154 27.3708 9.9172C32.402 11.2904 34.979 16.4324 33.582 20.374C32.6305 23.0503 29.5362 25.1794 27.6634 25.8598C26.4986 26.2845 25.2412 26.3565 24.2708 25.6546C22.1488 24.1176 24.0632 22.217 24.7428 21.5115C25.6339 20.5864 27.316 18.8838 26.6232 17.4025C25.8208 15.6855 23.24 15.3202 21.4314 17.192C19.6228 19.0637 18.6751 21.4701 20.4875 24.8735C21.6013 26.9684 23.4609 28.2571 25.5395 28.788C33.8123 28.3957 36.546 21.5475 37.3635 18.3042C38.4962 13.8173 36.0986 8.58535 33.0968 4.99836C32.2359 4.61321 31.2844 4.26045 30.2366 3.95448C22.9568 1.80913 16.1472 5.43931 11.7294 9.57884C10.7855 11.483 10.087 13.5294 9.69806 15.5811C13.9647 11.9636 19.5529 8.95251 25.5112 9.60223Z" fill="black"/>
<path opacity="0.6" d="M25.5112 9.60223L25.7 9.61303C26.2814 9.66703 26.8365 9.77141 27.3651 9.9154C27.367 9.9154 27.3689 9.9154 27.3708 9.9172C32.402 11.2904 34.979 16.4324 33.582 20.374C32.6305 23.0503 29.5362 25.1794 27.6634 25.8598C26.4986 26.2845 25.2412 26.3565 24.2708 25.6546C22.1488 24.1176 24.0632 22.217 24.7428 21.5115C25.6339 20.5864 27.316 18.8838 26.6232 17.4025C25.8208 15.6855 23.24 15.3202 21.4314 17.192C19.6228 19.0637 18.6751 21.4701 20.4875 24.8735C21.6013 26.9684 23.4609 28.2571 25.5395 28.788C33.8123 28.3957 36.546 21.5475 37.3635 18.3042C38.4962 13.8173 36.0986 8.58535 33.0968 4.99836C32.2359 4.61321 31.2844 4.26045 30.2366 3.95448C22.9568 1.80913 16.1472 5.43931 11.7294 9.57884C10.7855 11.483 10.087 13.5294 9.69806 15.5811C13.9647 11.9636 19.5529 8.95251 25.5112 9.60223Z" fill="black"/>
<path opacity="0.52" d="M5.23658 20.041C3.69793 21.8588 2.59351 23.5092 2.04601 24.6017C0.754685 27.1898 -3.13441 37.247 10.0621 40.0511C11.4214 40.3391 12.7901 40.4921 14.1513 40.5335C5.82561 36.9969 2.82383 28.4245 5.23469 20.0428L5.23658 20.041Z" fill="black"/>
<path d="M26.005 36.1638L25.6843 36.1543L25.8956 36.1677L26.0087 36.1638H26.005Z" fill="black"/>
<path opacity="0.52" d="M26.005 36.1638L25.6843 36.1543L25.8956 36.1677L26.0087 36.1638H26.005Z" fill="black"/>
<path d="M31.6224 35.5282C33.5745 34.3583 35.266 33.111 36.5932 31.9214H36.5781C33.7727 34.3331 30.8276 35.6506 27.9825 36.0429C29.0963 35.9385 30.331 35.7693 31.6224 35.53V35.5282Z" fill="black"/>
<path opacity="0.52" d="M31.6224 35.5282C33.5745 34.3583 35.266 33.111 36.5932 31.9214H36.5781C33.7727 34.3331 30.8276 35.6506 27.9825 36.0429C29.0963 35.9385 30.331 35.7693 31.6224 35.53V35.5282Z" fill="black"/>
<path d="M11.5861 27.0855C10.3004 25.0265 9.38292 22.5536 9.32628 19.6631C9.30174 18.3313 9.432 16.9581 9.69442 15.583C7.97265 17.0408 6.4661 18.5941 5.23518 20.0465C2.82621 28.4281 5.82799 37.0006 14.1518 40.5371C16.8005 40.6163 19.4266 40.2618 21.93 39.6193C17.1026 37.3983 12.7849 32.852 11.5842 27.0891L11.5861 27.0855Z" fill="black"/>
<path opacity="0.52" d="M11.5861 27.0855C10.3004 25.0265 9.38292 22.5536 9.32628 19.6631C9.30174 18.3313 9.432 16.9581 9.69442 15.583C7.97265 17.0408 6.4661 18.5941 5.23518 20.0465C2.82621 28.4281 5.82799 37.0006 14.1518 40.5371C16.8005 40.6163 19.4266 40.2618 21.93 39.6193C17.1026 37.3983 12.7849 32.852 11.5842 27.0891L11.5861 27.0855Z" fill="black"/>
<path d="M21.9598 9.85789C21.9598 9.85789 21.7106 9.90648 21.2953 10.0379C22.5715 9.66531 23.9818 9.48713 25.5091 9.60592C19.549 8.95799 13.9627 11.9672 9.6941 15.5812C9.4298 16.9545 9.30142 18.3295 9.32596 19.6614C9.37882 22.5536 10.3001 25.0248 11.5858 27.0855L11.4668 26.4736C9.09941 12.284 21.9598 9.85789 21.9598 9.85789Z" fill="black"/>
<path opacity="0.6" d="M21.9598 9.85789C21.9598 9.85789 21.7106 9.90648 21.2953 10.0379C22.5715 9.66531 23.9818 9.48713 25.5091 9.60592C19.549 8.95799 13.9627 11.9672 9.6941 15.5812C9.4298 16.9545 9.30142 18.3295 9.32596 19.6614C9.37882 22.5536 10.3001 25.0248 11.5858 27.0855L11.4668 26.4736C9.09941 12.284 21.9598 9.85789 21.9598 9.85789Z" fill="black"/>
<path opacity="0.52" d="M21.9598 9.85789C21.9598 9.85789 21.7106 9.90648 21.2953 10.0379C22.5715 9.66531 23.9818 9.48713 25.5091 9.60592C19.549 8.95799 13.9627 11.9672 9.6941 15.5812C9.4298 16.9545 9.30142 18.3295 9.32596 19.6614C9.37882 22.5536 10.3001 25.0248 11.5858 27.0855L11.4668 26.4736C9.09941 12.284 21.9598 9.85789 21.9598 9.85789Z" fill="black"/>
<path d="M27.3703 9.91738C27.3684 9.91738 27.3665 9.91738 27.3647 9.91553C27.3665 9.91738 27.3684 9.91738 27.3703 9.91738Z" fill="black"/>
<path opacity="0.6" d="M27.3703 9.91738C27.3684 9.91738 27.3665 9.91738 27.3647 9.91553C27.3665 9.91738 27.3684 9.91738 27.3703 9.91738Z" fill="black"/>
<path opacity="0.52" d="M27.3703 9.91738C27.3684 9.91738 27.3665 9.91738 27.3647 9.91553C27.3665 9.91738 27.3684 9.91738 27.3703 9.91738Z" fill="black"/>
<path opacity="0.24" d="M44.0058 30.8345C44.0039 30.8345 44.0039 30.8363 44.002 30.8363L43.5587 31.5238L44.0058 30.8345Z" fill="black"/>
<path d="M21.9327 39.6153C24.1284 40.6232 26.426 41.156 28.5857 41.1002C35.7258 40.9166 41.3291 34.3941 41.9559 33.6364C42.696 32.7437 43.2246 32.0166 43.5606 31.5235C43.7128 31.2968 43.8607 31.0676 44.0043 30.8359C40.7193 33.2171 35.8636 34.7415 31.6234 35.528C28.833 37.1982 25.5065 38.6992 21.9346 39.6135L21.9327 39.6153Z" fill="black"/>
<path opacity="0.24" d="M21.9327 39.6153C24.1284 40.6232 26.426 41.156 28.5857 41.1002C35.7258 40.9166 41.3291 34.3941 41.9559 33.6364C42.696 32.7437 43.2246 32.0166 43.5606 31.5235C43.7128 31.2968 43.8607 31.0676 44.0043 30.8359C40.7193 33.2171 35.8636 34.7415 31.6234 35.528C28.833 37.1982 25.5065 38.6992 21.9346 39.6135L21.9327 39.6153Z" fill="black"/>
<path d="M26.0047 36.1638L25.8915 36.1674C25.8197 36.1692 25.7499 36.1602 25.68 36.1548C23.7676 36.0882 21.9363 35.6076 20.2617 34.7689L20.2598 34.7725C20.2598 34.7725 14.7849 32.2204 11.5849 27.0874C12.7856 32.8521 17.1033 37.3966 21.9306 39.614C25.5026 38.6961 28.8291 37.1968 31.6194 35.5284C30.3281 35.7678 29.0953 35.937 27.9795 36.0414C27.3242 36.1295 26.6627 36.1698 26.001 36.162L26.0047 36.1638Z" fill="black"/>
<path opacity="0.52" d="M26.0047 36.1638L25.8915 36.1674C25.8197 36.1692 25.7499 36.1602 25.68 36.1548C23.7676 36.0882 21.9363 35.6076 20.2617 34.7689L20.2598 34.7725C20.2598 34.7725 14.7849 32.2204 11.5849 27.0874C12.7856 32.8521 17.1033 37.3966 21.9306 39.614C25.5026 38.6961 28.8291 37.1968 31.6194 35.5284C30.3281 35.7678 29.0953 35.937 27.9795 36.0414C27.3242 36.1295 26.6627 36.1698 26.001 36.162L26.0047 36.1638Z" fill="black"/>
<path opacity="0.24" d="M26.0047 36.1638L25.8915 36.1674C25.8197 36.1692 25.7499 36.1602 25.68 36.1548C23.7676 36.0882 21.9363 35.6076 20.2617 34.7689L20.2598 34.7725C20.2598 34.7725 14.7849 32.2204 11.5849 27.0874C12.7856 32.8521 17.1033 37.3966 21.9306 39.614C25.5026 38.6961 28.8291 37.1968 31.6194 35.5284C30.3281 35.7678 29.0953 35.937 27.9795 36.0414C27.3242 36.1295 26.6627 36.1698 26.001 36.162L26.0047 36.1638Z" fill="black"/>
<path d="M20.2623 34.7703L20.2642 34.7667C17.0283 33.1469 14.3796 30.2007 12.8862 26.3383C11.9517 23.9176 10.802 19.2021 14.6288 14.5101C15.9125 12.9353 18.2158 10.9285 21.2968 10.034C21.7122 9.9044 21.9614 9.854 21.9614 9.854C21.9614 9.854 9.09907 12.2837 11.4646 26.4697C11.4986 26.6767 11.5401 26.8801 11.5836 27.0816C14.7855 32.2146 20.2604 34.7667 20.2604 34.7667L20.2623 34.7703Z" fill="black"/>
<path opacity="0.6" d="M20.2623 34.7703L20.2642 34.7667C17.0283 33.1469 14.3796 30.2007 12.8862 26.3383C11.9517 23.9176 10.802 19.2021 14.6288 14.5101C15.9125 12.9353 18.2158 10.9285 21.2968 10.034C21.7122 9.9044 21.9614 9.854 21.9614 9.854C21.9614 9.854 9.09907 12.2837 11.4646 26.4697C11.4986 26.6767 11.5401 26.8801 11.5836 27.0816C14.7855 32.2146 20.2604 34.7667 20.2604 34.7667L20.2623 34.7703Z" fill="black"/>
<path opacity="0.52" d="M20.2623 34.7703L20.2642 34.7667C17.0283 33.1469 14.3796 30.2007 12.8862 26.3383C11.9517 23.9176 10.802 19.2021 14.6288 14.5101C15.9125 12.9353 18.2158 10.9285 21.2968 10.034C21.7122 9.9044 21.9614 9.854 21.9614 9.854C21.9614 9.854 9.09907 12.2837 11.4646 26.4697C11.4986 26.6767 11.5401 26.8801 11.5836 27.0816C14.7855 32.2146 20.2604 34.7667 20.2604 34.7667L20.2623 34.7703Z" fill="black"/>
<path opacity="0.24" d="M20.2623 34.7703L20.2642 34.7667C17.0283 33.1469 14.3796 30.2007 12.8862 26.3383C11.9517 23.9176 10.802 19.2021 14.6288 14.5101C15.9125 12.9353 18.2158 10.9285 21.2968 10.034C21.7122 9.9044 21.9614 9.854 21.9614 9.854C21.9614 9.854 9.09907 12.2837 11.4646 26.4697C11.4986 26.6767 11.5401 26.8801 11.5836 27.0816C14.7855 32.2146 20.2604 34.7667 20.2604 34.7667L20.2623 34.7703Z" fill="black"/>
<path d="M45.6742 16.1717C45.2437 15.7631 44.6264 16.0709 43.9807 16.7116L45.3589 18.587C45.3589 18.587 44.8492 18.4736 44.313 18.9884C44.1752 19.1215 44.0487 19.2907 43.9354 19.4653C43.9732 19.4293 46.1254 17.14 46.6408 20.6172C47.7358 21.3371 48.4022 22.462 49.2461 21.9724C50.2146 21.4109 47.2827 17.7015 45.6704 16.1717H45.6742Z" fill="black"/>
<path d="M43.9375 19.465C43.6958 19.843 43.5259 20.2389 43.4561 20.4189C44.8758 19.8016 45.8669 20.1057 46.6428 20.6169C46.1256 17.1433 43.9733 19.429 43.9375 19.465Z" fill="black"/>
<path d="M43.938 19.4671C44.0513 19.2925 44.1759 19.1251 44.3156 18.9901C44.848 18.4754 45.3615 18.5888 45.3615 18.5888L43.9833 16.7134C43.4037 17.2893 42.7996 18.1352 42.2842 18.9811L43.938 19.4671Z" fill="black"/>
<path d="M42.2821 18.9846C41.2136 20.7484 40.5207 22.523 41.206 21.9254C42.0612 21.1803 42.8051 20.7016 43.4583 20.419C43.5281 20.2426 43.698 19.8431 43.9397 19.4651L43.9378 19.4669L42.2821 18.981V18.9846Z" fill="black"/>
</svg>
